<svg version="1.1" id="Layer_1" xmlns="http://www.w3.org/2000/svg" xmlns:xlink="http://www.w3.org/1999/xlink" x="0px" y="0px"
	 width="100%" viewBox="0 0 352 272" enable-background="new 0 0 352 272" xml:space="preserve">
<path fill="#000000" opacity="1.000000" stroke="none" 
	d="
M152.558868,132.862396 
	C154.883194,121.009239 160.683685,111.752472 169.974396,104.773849 
	C207.098221,76.888672 244.178116,48.943783 281.449097,21.256332 
	C297.780945,9.123917 317.337097,17.484159 319.814270,37.339714 
	C320.429657,42.272400 319.195465,46.976318 316.525330,51.119911 
	C290.677856,91.231201 264.803009,131.325012 238.849960,171.368073 
	C232.200577,181.627457 222.566254,187.774933 210.770462,190.683044 
	C208.587738,191.221161 206.655350,191.410416 204.739777,189.682159 
	C188.430084,174.967270 172.150909,160.215607 155.639740,145.728973 
	C151.434265,142.039139 150.894333,138.102692 152.558868,132.862396 
z"/>
<path fill="#000000" opacity="1.000000" stroke="none" 
	d="
M91.655251,196.032806 
	C97.635597,171.564102 113.055428,157.702789 137.188309,153.105621 
	C140.368134,152.499878 142.953705,152.950165 145.434448,155.196075 
	C157.139328,165.792847 168.954391,176.267776 180.702271,186.817230 
	C185.651108,191.261215 190.425308,195.906586 195.495270,200.205231 
	C197.486404,201.893448 198.276398,203.642441 198.338058,206.168060 
	C199.026138,234.352081 174.845810,259.902832 146.609451,260.258514 
	C123.306862,260.552032 99.997238,260.379242 76.691368,260.273315 
	C67.032265,260.229431 60.293312,253.587982 60.268593,244.526489 
	C60.244469,235.683823 66.735519,229.223969 76.174911,228.696671 
	C85.468811,228.177490 90.708427,222.685715 90.766693,213.348770 
	C90.801903,207.706451 90.159119,202.032730 91.655251,196.032806 
z"/>
</svg>